<svg id="Isolation_Mode" data-name="Isolation Mode" xmlns="http://www.w3.org/2000/svg" viewBox="0 0 373.84 374.03"><defs><style>.cls-1{fill:#8c0919;}.cls-2{fill:#910d1a;}.cls-3{fill:#96111a;}.cls-4{fill:#9a151b;}.cls-5{fill:#9f181b;}.cls-6{fill:#a41c1c;}.cls-7{fill:#a9201c;}.cls-8{fill:#ae241d;}.cls-9{fill:#b2281d;}.cls-10{fill:#b72c1e;}.cls-11{fill:#bc301e;}.cls-12{fill:#c1331f;}.cls-13{fill:#c6371f;}.cls-14{fill:#cb3b20;}.cls-15{fill:#cf3f20;}.cls-16{fill:#d44321;}.cls-17{fill:#d94721;}.cls-18{fill:#de4b22;}.cls-19{fill:#e34e22;}.cls-20{fill:#e75223;}.cls-21{fill:#ec5623;}.cls-22{fill:#f15a24;}</style></defs><g id="Layer_1" data-name="Layer 1"><path class="cls-1" d="M80.42,49.12A33.38,33.38,0,0,0,47.07,82.46V318.9a33.38,33.38,0,0,0,33.35,33.34H316.66A33.38,33.38,0,0,0,350,318.9V82.46a33.38,33.38,0,0,0-33.35-33.34ZM316.66,387.7H80.42a68.88,68.88,0,0,1-68.8-68.8V82.46a68.88,68.88,0,0,1,68.8-68.8H316.66a68.88,68.88,0,0,1,68.8,68.8V318.9A68.88,68.88,0,0,1,316.66,387.7Z" transform="translate(-11.62 -13.66)"/><path class="cls-2" d="M80.42,48.44a34.06,34.06,0,0,0-34,34V318.9a34.06,34.06,0,0,0,34,34H316.66a34.06,34.06,0,0,0,34-34V82.46a34.06,34.06,0,0,0-34-34Zm0,338.58A68.2,68.2,0,0,1,12.29,318.9V82.46A68.2,68.2,0,0,1,80.42,14.34H316.66a68.2,68.2,0,0,1,68.13,68.12V318.9A68.2,68.2,0,0,1,316.66,387Z" transform="translate(-11.62 -13.66)"/><path class="cls-3" d="M80.42,47.77a34.74,34.74,0,0,0-34.7,34.69V318.9a34.74,34.74,0,0,0,34.7,34.69H316.66a34.73,34.73,0,0,0,34.7-34.69V82.46a34.73,34.73,0,0,0-34.7-34.69Zm0,338.58A67.53,67.53,0,0,1,13,318.9V82.46A67.52,67.52,0,0,1,80.42,15H316.66a67.52,67.52,0,0,1,67.45,67.44V318.9a67.53,67.53,0,0,1-67.45,67.45Z" transform="translate(-11.62 -13.66)"/><path class="cls-4" d="M80.42,47.09A35.41,35.41,0,0,0,45.05,82.46V318.9a35.41,35.41,0,0,0,35.37,35.37H316.66A35.41,35.41,0,0,0,352,318.9V82.46a35.41,35.41,0,0,0-35.37-35.37Zm0,338.58A66.85,66.85,0,0,1,13.64,318.9V82.46A66.86,66.86,0,0,1,80.42,15.69H316.66a66.86,66.86,0,0,1,66.78,66.77V318.9a66.85,66.85,0,0,1-66.78,66.77Z" transform="translate(-11.62 -13.66)"/><path class="cls-5" d="M80.42,46.42a36.09,36.09,0,0,0-36.05,36V318.9a36.08,36.08,0,0,0,36.05,36H316.66a36.08,36.08,0,0,0,36-36V82.46a36.09,36.09,0,0,0-36-36Zm0,338.58a66.17,66.17,0,0,1-66.1-66.1V82.46a66.17,66.17,0,0,1,66.1-66.09H316.66a66.17,66.17,0,0,1,66.1,66.09V318.9a66.17,66.17,0,0,1-66.1,66.1Z" transform="translate(-11.62 -13.66)"/><path class="cls-6" d="M80.42,45.74A36.76,36.76,0,0,0,43.7,82.46V318.9a36.76,36.76,0,0,0,36.72,36.72H316.66a36.76,36.76,0,0,0,36.72-36.72V82.46a36.76,36.76,0,0,0-36.72-36.72Zm0,338.58A65.5,65.5,0,0,1,15,318.9V82.46A65.5,65.5,0,0,1,80.42,17H316.66a65.5,65.5,0,0,1,65.43,65.42V318.9a65.5,65.5,0,0,1-65.43,65.42Z" transform="translate(-11.62 -13.66)"/><path class="cls-7" d="M80.42,45.07A37.44,37.44,0,0,0,43,82.46V318.9a37.45,37.45,0,0,0,37.4,37.4H316.66a37.44,37.44,0,0,0,37.4-37.4V82.46a37.43,37.43,0,0,0-37.4-37.39Zm0,338.58A64.83,64.83,0,0,1,15.67,318.9V82.46A64.82,64.82,0,0,1,80.42,17.72H316.66a64.81,64.81,0,0,1,64.75,64.74V318.9a64.82,64.82,0,0,1-64.75,64.75Z" transform="translate(-11.62 -13.66)"/><path class="cls-8" d="M80.42,44.39A38.11,38.11,0,0,0,42.35,82.46V318.9A38.11,38.11,0,0,0,80.42,357H316.66a38.12,38.12,0,0,0,38.08-38.07V82.46a38.12,38.12,0,0,0-38.08-38.07Zm0,338.58A64.14,64.14,0,0,1,16.35,318.9V82.46A64.14,64.14,0,0,1,80.42,18.39H316.66a64.15,64.15,0,0,1,64.08,64.07V318.9A64.15,64.15,0,0,1,316.66,383Z" transform="translate(-11.62 -13.66)"/><path class="cls-9" d="M80.42,43.72A38.79,38.79,0,0,0,41.67,82.46V318.9a38.79,38.79,0,0,0,38.75,38.75H316.66a38.79,38.79,0,0,0,38.75-38.75V82.46a38.79,38.79,0,0,0-38.75-38.74Zm0,338.58A63.47,63.47,0,0,1,17,318.9V82.46a63.47,63.47,0,0,1,63.4-63.39H316.66a63.47,63.47,0,0,1,63.4,63.39V318.9a63.47,63.47,0,0,1-63.4,63.4Z" transform="translate(-11.62 -13.66)"/><path class="cls-10" d="M80.42,43A39.47,39.47,0,0,0,41,82.46V318.9a39.47,39.47,0,0,0,39.43,39.42H316.66a39.47,39.47,0,0,0,39.43-39.42V82.46A39.47,39.47,0,0,0,316.66,43Zm0,338.58A62.79,62.79,0,0,1,17.7,318.9V82.46A62.79,62.79,0,0,1,80.42,19.74H316.66a62.79,62.79,0,0,1,62.72,62.72V318.9a62.79,62.79,0,0,1-62.72,62.72Z" transform="translate(-11.62 -13.66)"/><path class="cls-11" d="M80.42,42.37a40.14,40.14,0,0,0-40.1,40.09V318.9A40.15,40.15,0,0,0,80.42,359H316.66a40.15,40.15,0,0,0,40.1-40.1V82.46a40.14,40.14,0,0,0-40.1-40.09Zm0,338.57a62.12,62.12,0,0,1-62-62V82.46a62.12,62.12,0,0,1,62.05-62H316.66a62.11,62.11,0,0,1,62,62V318.9a62.11,62.11,0,0,1-62,62Z" transform="translate(-11.62 -13.66)"/><path class="cls-12" d="M80.42,41.69A40.82,40.82,0,0,0,39.64,82.46V318.9a40.82,40.82,0,0,0,40.78,40.77H316.66a40.82,40.82,0,0,0,40.78-40.77V82.46a40.82,40.82,0,0,0-40.78-40.77Zm0,338.58A61.44,61.44,0,0,1,19.05,318.9V82.46A61.44,61.44,0,0,1,80.42,21.09H316.66A61.44,61.44,0,0,1,378,82.46V318.9a61.44,61.44,0,0,1-61.37,61.37Z" transform="translate(-11.62 -13.66)"/><path class="cls-13" d="M80.42,41A41.49,41.49,0,0,0,39,82.46V318.9a41.5,41.5,0,0,0,41.45,41.45H316.66a41.5,41.5,0,0,0,41.45-41.45V82.46A41.49,41.49,0,0,0,316.66,41Zm0,338.57a60.76,60.76,0,0,1-60.7-60.69V82.46a60.77,60.77,0,0,1,60.7-60.69H316.66a60.77,60.77,0,0,1,60.7,60.69V318.9a60.76,60.76,0,0,1-60.7,60.69Z" transform="translate(-11.62 -13.66)"/><path class="cls-14" d="M80.42,40.34A42.18,42.18,0,0,0,38.29,82.46V318.9A42.17,42.17,0,0,0,80.42,361H316.66a42.17,42.17,0,0,0,42.13-42.12V82.46a42.18,42.18,0,0,0-42.13-42.12Zm0,338.58a60.09,60.09,0,0,1-60-60V82.46a60.09,60.09,0,0,1,60-60H316.66a60.09,60.09,0,0,1,60,60V318.9a60.09,60.09,0,0,1-60,60Z" transform="translate(-11.62 -13.66)"/><path class="cls-15" d="M80.42,39.66a42.85,42.85,0,0,0-42.8,42.8V318.9a42.85,42.85,0,0,0,42.8,42.8H316.66a42.85,42.85,0,0,0,42.8-42.8V82.46a42.85,42.85,0,0,0-42.8-42.8Zm0,338.58A59.41,59.41,0,0,1,21.07,318.9V82.46A59.41,59.41,0,0,1,80.42,23.12H316.66A59.41,59.41,0,0,1,376,82.46V318.9a59.41,59.41,0,0,1-59.35,59.34Z" transform="translate(-11.62 -13.66)"/><path class="cls-16" d="M80.42,39A43.53,43.53,0,0,0,36.94,82.46V318.9a43.53,43.53,0,0,0,43.48,43.47H316.66a43.52,43.52,0,0,0,43.48-43.47V82.46A43.52,43.52,0,0,0,316.66,39Zm0,338.58A58.74,58.74,0,0,1,21.75,318.9V82.46A58.74,58.74,0,0,1,80.42,23.79H316.66a58.74,58.74,0,0,1,58.67,58.67V318.9a58.74,58.74,0,0,1-58.67,58.67Z" transform="translate(-11.62 -13.66)"/><path class="cls-17" d="M80.42,38.31A44.2,44.2,0,0,0,36.27,82.46V318.9a44.2,44.2,0,0,0,44.15,44.15H316.66a44.2,44.2,0,0,0,44.15-44.15V82.46a44.2,44.2,0,0,0-44.15-44.15Zm0,338.58a58.06,58.06,0,0,1-58-58V82.46a58.07,58.07,0,0,1,58-58H316.66a58.07,58.07,0,0,1,58,58V318.9a58.06,58.06,0,0,1-58,58Z" transform="translate(-11.62 -13.66)"/><path class="cls-18" d="M80.42,37.64A44.88,44.88,0,0,0,35.59,82.46V318.9a44.87,44.87,0,0,0,44.83,44.82H316.66a44.87,44.87,0,0,0,44.83-44.82V82.46a44.88,44.88,0,0,0-44.83-44.82Zm0,338.58A57.39,57.39,0,0,1,23.1,318.9V82.46A57.38,57.38,0,0,1,80.42,25.15H316.66A57.38,57.38,0,0,1,374,82.46V318.9a57.39,57.39,0,0,1-57.32,57.32Z" transform="translate(-11.62 -13.66)"/><path class="cls-19" d="M80.42,37a45.56,45.56,0,0,0-45.5,45.5V318.9a45.55,45.55,0,0,0,45.5,45.5H316.66a45.55,45.55,0,0,0,45.5-45.5V82.46A45.56,45.56,0,0,0,316.66,37Zm0,338.58A56.71,56.71,0,0,1,23.77,318.9V82.46A56.71,56.71,0,0,1,80.42,25.82H316.66a56.71,56.71,0,0,1,56.65,56.64V318.9a56.71,56.71,0,0,1-56.65,56.64Z" transform="translate(-11.62 -13.66)"/><path class="cls-20" d="M80.42,36.29A46.23,46.23,0,0,0,34.24,82.46V318.9a46.23,46.23,0,0,0,46.18,46.17H316.66a46.22,46.22,0,0,0,46.18-46.17V82.46a46.22,46.22,0,0,0-46.18-46.17Zm0,338.58a56,56,0,0,1-56-56V82.46a56,56,0,0,1,56-56H316.66a56,56,0,0,1,56,56V318.9a56,56,0,0,1-56,56Z" transform="translate(-11.62 -13.66)"/><path class="cls-21" d="M80.42,35.61A46.9,46.9,0,0,0,33.57,82.46V318.9a46.9,46.9,0,0,0,46.85,46.85H316.66a46.9,46.9,0,0,0,46.85-46.85V82.46a46.9,46.9,0,0,0-46.85-46.85Zm0,338.58a55.36,55.36,0,0,1-55.3-55.29V82.46a55.36,55.36,0,0,1,55.3-55.29H316.66A55.36,55.36,0,0,1,372,82.46V318.9a55.36,55.36,0,0,1-55.3,55.29Z" transform="translate(-11.62 -13.66)"/><path class="cls-22" d="M80.42,34.94A47.58,47.58,0,0,0,32.89,82.46V318.9a47.58,47.58,0,0,0,47.53,47.53H316.66a47.58,47.58,0,0,0,47.53-47.53V82.46a47.58,47.58,0,0,0-47.53-47.52Zm0,338.58A54.69,54.69,0,0,1,25.8,318.9V82.46A54.68,54.68,0,0,1,80.42,27.85H316.66a54.68,54.68,0,0,1,54.62,54.61V318.9a54.69,54.69,0,0,1-54.62,54.62Z" transform="translate(-11.62 -13.66)"/></g></svg>